<svg data-v-fde0c5aa="" xmlns="http://www.w3.org/2000/svg" viewBox="0 0 300 300" class="iconLeft"><!----><defs data-v-fde0c5aa=""><!----></defs><rect data-v-fde0c5aa="" fill="transparent" x="0" y="0" width="300px" height="300px" class="logo-background-square"></rect><defs data-v-fde0c5aa=""><!----></defs><g data-v-fde0c5aa="" id="42f98f07-4ff8-4d6c-a6e0-a109e6885e50" fill="#000000" transform="matrix(2.6665010068073993,0,0,2.6665010068073993,93.7969918133893,126.29480576975513)"><path d="M0.49 11.14C0.99 13.01 2.46 14.14 4.48 14.14C6.38 14.14 7.94 13.02 7.94 11.37C7.94 7.80 2.17 9.07 2.17 6.24C2.17 5.28 3.07 4.62 4.37 4.62C5.59 4.62 6.47 5.33 6.82 6.51L7.90 6.51C7.52 4.80 6.24 3.64 4.37 3.64C2.44 3.64 1.08 4.72 1.08 6.24C1.08 10.05 6.83 8.69 6.83 11.40C6.83 12.40 5.84 13.16 4.48 13.16C3.14 13.16 2.03 12.49 1.60 11.14ZM12.63 6.58C10.91 6.58 9.69 7.56 9.59 9.02L10.58 9.02C10.64 8.18 11.44 7.49 12.59 7.49C13.87 7.49 14.63 8.16 14.63 9.67L14.63 9.94L12.36 9.93C10.44 9.93 9.30 10.79 9.30 12.01C9.30 13.27 10.35 14.14 11.69 14.14C12.98 14.14 14 13.55 14.76 12.96L14.97 14L15.65 14L15.65 9.67C15.65 7.70 14.56 6.58 12.63 6.58ZM10.33 12.00C10.33 11.19 11.05 10.79 12.38 10.79L14.63 10.79L14.63 12.11C13.87 12.70 12.92 13.22 11.90 13.22C11.05 13.22 10.33 12.78 10.33 12.00ZM22.27 6.58C21.11 6.58 20.05 6.99 18.93 7.78L18.76 6.72L18.00 6.72L18.00 14L19.04 14L19.04 8.65C20.03 7.98 21.10 7.50 22.01 7.50C23.11 7.50 23.74 8.12 23.74 9.30L23.74 14L24.79 14L24.79 9.25C24.79 7.50 23.84 6.58 22.27 6.58ZM26.60 10.33C26.60 12.45 28.18 14.14 30.41 14.14C32.62 14.14 34.20 12.45 34.20 10.33C34.20 8.25 32.62 6.58 30.41 6.58C28.18 6.58 26.60 8.25 26.60 10.33ZM27.64 10.36C27.64 8.76 28.78 7.49 30.41 7.49C32.02 7.49 33.15 8.76 33.15 10.36C33.15 11.94 32.02 13.23 30.41 13.23C28.78 13.23 27.64 11.94 27.64 10.36ZM36.12 9.72C36.12 12.38 37.87 14.14 40.35 14.14C42.94 14.14 44.58 12.26 44.58 9.72L44.58 3.78L43.47 3.78L43.47 9.77C43.47 11.82 42.17 13.13 40.35 13.13C38.44 13.13 37.24 11.72 37.24 9.77L37.24 3.78L36.12 3.78ZM52.36 14L53.84 14.01L49.85 10.35C52.14 10.25 53.76 8.99 53.76 7.11C53.76 5.12 52.01 3.78 49.60 3.78L47.39 3.78L47.39 14L48.48 14L48.48 10.35ZM49.59 4.73C51.44 4.73 52.65 5.68 52.65 7.11C52.65 8.51 51.44 9.42 49.60 9.42L48.48 9.42L48.48 4.73ZM57.06 12.99L57.06 3.78L55.97 3.78L55.97 14L62.33 14L62.33 12.99Z"></path></g><defs data-v-fde0c5aa=""><linearGradient data-v-fde0c5aa="" gradientTransform="rotate(25)" id="77b731ca-40f7-4fbd-bc6a-70c8d5116c56" x1="0%" y1="0%" x2="100%" y2="0%"><stop data-v-fde0c5aa="" offset="0%" stop-color="#177775" stop-opacity="1"></stop><stop data-v-fde0c5aa="" offset="100%" stop-color="#28D2BF" stop-opacity="1"></stop></linearGradient></defs><g data-v-fde0c5aa="" id="3b9cb09d-7490-49b0-a2d0-8f554b076c99" stroke="none" fill="url(#77b731ca-40f7-4fbd-bc6a-70c8d5116c56)" transform="matrix(0.5309404761993352,0,0,0.5309404761993352,34.53131299387799,123.42642906495442)"><path d="M71.2 46.6l5.9 5.9c3.3 3.3 5.1 7.6 5.1 12.4s-1.8 9.1-5.1 12.4c-3.3 3.3-7.6 5.1-12.4 5.1-4.7 0-9.1-1.8-12.4-5.1l-5.9-5.9c-.7-.7-1.6-1.1-2.6-1.1s-1.9.4-2.6 1.1c-.7.7-1.1 1.6-1.1 2.6s.4 1.9 1.1 2.6l6.1 5.6c4.8 4.8 11 7.4 17.5 7.4 6.6 0 12.8-2.6 17.5-7.3 4.7-4.7 7.3-10.9 7.3-17.5S87.1 52 82.3 47.3l-5.9-5.9c-.7-.7-1.6-1.1-2.6-1.1s-1.9.4-2.6 1.1c-1.4 1.5-1.4 3.8 0 5.2zM17.6 17.6c-4.7 4.7-7.3 10.9-7.3 17.5s2.6 12.8 7.3 17.5l5.9 5.9c1.5 1.5 3.7 1.5 5.2 0 1.4-1.4 1.4-3.8 0-5.2l-5.9-5.9c-3.3-3.3-5.1-7.6-5.1-12.4s1.8-9.1 5.1-12.4 7.6-5.1 12.4-5.1c4.7 0 9.1 1.8 12.4 5.1l5.7 6.1c.7.7 1.6 1.1 2.6 1.1s1.9-.4 2.6-1.1c.7-.7 1.1-1.6 1.1-2.5s-.4-1.8-1.1-2.5l-5.9-5.9c-4.7-4.7-10.9-7.3-17.5-7.3s-12.8 2.4-17.5 7.1z"></path><path d="M36.2 39.9c0 1 .4 1.9 1.1 2.6l19.9 19.9c1.5 1.5 3.7 1.5 5.2 0 1.4-1.4 1.4-3.7 0-5.1L42.5 37.4c-.7-.7-1.6-1.1-2.6-1.1s-1.9.4-2.6 1.1c-.7.8-1 1.6-1.1 2.5z"></path></g><!----></svg>